<svg xmlns="http://www.w3.org/2000/svg" xmlns:xlink="http://www.w3.org/1999/xlink" width="4096" zoomAndPan="magnify" viewBox="0 0 3072 2502.750004" height="3337" preserveAspectRatio="xMidYMid meet" version="1.0"><defs><clipPath id="d4fc7e288b"><path d="M 3 749.664062 L 3069 749.664062 L 3069 1984 L 3 1984 Z M 3 749.664062 " clip-rule="nonzero"/></clipPath><clipPath id="ab5a5a0bf8"><path d="M 1231 1681 L 1536 1681 L 1536 1984.042969 L 1231 1984.042969 Z M 1231 1681 " clip-rule="nonzero"/></clipPath></defs><g clip-path="url(#d4fc7e288b)"><path fill="#004aad" d="M 2261.601562 761.921875 C 2253.636719 753.957031 2242.605469 749.664062 2231.574219 749.664062 L 1391.984375 749.664062 C 1380.339844 749.664062 1369.921875 753.957031 1361.339844 761.921875 L 1099.65625 1023.628906 L 690.894531 1023.628906 L 690.894531 1024.242188 C 679.863281 1024.242188 668.832031 1028.535156 660.863281 1036.5 L 3.898438 1693.527344 L 124.628906 1693.527344 L 691.507812 1126.597656 L 1081.273438 1516.402344 L 614.289062 1983.429688 L 735.019531 1983.429688 L 1141.332031 1577.078125 L 1383.402344 1334.984375 L 1505.359375 1456.949219 L 2031.789062 1983.429688 L 2152.515625 1983.429688 L 1626.085938 1456.949219 L 2230.347656 852.632812 L 2946.144531 1568.496094 L 3068.101562 1568.496094 Z M 2261.601562 761.921875 " fill-opacity="1" fill-rule="nonzero"/></g><g clip-path="url(#ab5a5a0bf8)"><path fill="#d46460" d="M 1408.53125 1681.882812 C 1480.84375 1694.140625 1535.386719 1756.042969 1535.386719 1832.042969 L 1535.386719 1833.269531 L 1408.53125 1833.269531 Z M 1358.277344 1833.269531 L 1358.277344 1681.882812 C 1285.960938 1693.527344 1231.417969 1756.042969 1231.417969 1832.042969 L 1231.417969 1833.269531 Z M 1358.277344 1883.527344 L 1231.417969 1883.527344 L 1231.417969 1984.042969 L 1358.277344 1984.042969 Z M 1408.53125 1883.527344 L 1408.53125 1984.042969 L 1535.386719 1984.042969 L 1535.386719 1883.527344 Z M 1408.53125 1883.527344 " fill-opacity="1" fill-rule="nonzero"/></g><path fill="#e3b43c" d="M 2257.925781 1144.371094 C 2330.242188 1156.628906 2384.785156 1218.53125 2384.785156 1294.53125 L 2384.785156 1295.757812 L 2257.925781 1295.757812 Z M 2207.671875 1295.757812 L 2207.671875 1144.371094 C 2135.359375 1156.015625 2080.816406 1218.53125 2080.816406 1294.53125 L 2080.816406 1295.757812 Z M 2207.671875 1345.402344 L 2080.816406 1345.402344 L 2080.816406 1445.917969 L 2207.671875 1445.917969 Z M 2257.925781 1345.402344 L 2257.925781 1445.917969 L 2384.785156 1445.917969 L 2384.785156 1345.402344 Z M 2257.925781 1345.402344 " fill-opacity="1" fill-rule="nonzero"/><path fill="#54b5b3" d="M 718.472656 1389.53125 C 790.785156 1401.789062 845.328125 1463.691406 845.328125 1539.691406 L 845.328125 1540.917969 L 718.472656 1540.917969 Z M 668.21875 1540.917969 L 668.21875 1389.53125 C 595.902344 1401.175781 541.359375 1463.691406 541.359375 1539.691406 L 541.359375 1540.917969 Z M 668.21875 1591.175781 L 541.359375 1591.175781 L 541.359375 1691.6875 L 668.21875 1691.6875 Z M 718.472656 1591.175781 L 718.472656 1691.6875 L 845.328125 1691.6875 L 845.328125 1591.175781 Z M 718.472656 1591.175781 " fill-opacity="1" fill-rule="nonzero"/></svg>